<?xml version="1.0" encoding="UTF-8" standalone="no"?>
<!-- Created with Inkscape (http://www.inkscape.org/) -->

<svg
   xmlns:dc="http://purl.org/dc/elements/1.1/"
   xmlns:cc="http://creativecommons.org/ns#"
   xmlns:rdf="http://www.w3.org/1999/02/22-rdf-syntax-ns#"
   xmlns:svg="http://www.w3.org/2000/svg"
   xmlns="http://www.w3.org/2000/svg"
   xmlns:sodipodi="http://sodipodi.sourceforge.net/DTD/sodipodi-0.dtd"
   xmlns:inkscape="http://www.inkscape.org/namespaces/inkscape"
   id="svg2"
   version="1.1"
   inkscape:version="0.91 r13725"
   width="2400"
   height="580"
   viewBox="0 0 2400 580"
   sodipodi:docname="weenat.svg"
   inkscape:export-filename="weenat.png"
   inkscape:export-xdpi="31.25"
   inkscape:export-ydpi="31.25">
  <metadata
     id="metadata8">
    <rdf:RDF>
      <cc:Work
         rdf:about="">
        <dc:format>image/svg+xml</dc:format>
        <dc:type
           rdf:resource="http://purl.org/dc/dcmitype/StillImage" />
        <dc:title></dc:title>
      </cc:Work>
    </rdf:RDF>
  </metadata>
  <defs
     id="defs6" />
  <sodipodi:namedview
     pagecolor="#ffffff"
     bordercolor="#666666"
     borderopacity="1"
     objecttolerance="10"
     gridtolerance="10"
     guidetolerance="10"
     inkscape:pageopacity="0"
     inkscape:pageshadow="2"
     inkscape:window-width="1920"
     inkscape:window-height="1057"
     id="namedview4"
     showgrid="false"
     fit-margin-top="0"
     fit-margin-left="0"
     fit-margin-right="0"
     fit-margin-bottom="0"
     inkscape:zoom="0.13350176"
     inkscape:cx="1308.6985"
     inkscape:cy="-60.595165"
     inkscape:window-x="0"
     inkscape:window-y="0"
     inkscape:window-maximized="1"
     inkscape:current-layer="svg2" />
  <g
     id="g4228"
     transform="translate(-90.692503,-101.95413)">
    <g
       transform="translate(-576.71546,-265.6747)"
       id="g4205">
      <path
         inkscape:connector-curvature="0"
         id="path4159"
         d="m 934.01134,944.34579 c -14.23516,-1.30018 -19.64363,-2.44371 -20.2567,-4.28291 -0.45565,-1.36692 28.1178,-24.38382 55.8817,-45.01462 33.10336,-24.59848 62.70356,-43.6264 86.40116,-55.5413 l 10.2549,-5.1561 4.4845,2.48404 c 4.8743,2.70005 15.4481,5.99081 22.9784,7.1514 5.2593,0.81056 6.3754,2.60947 8.513,13.72166 1.3724,7.1343 1.6528,40.87829 0.3954,47.58089 -1.0184,5.42836 -4.1813,7.56964 -24.2774,16.43603 -44.5313,19.64719 -93.28995,27.28677 -144.37496,22.62091 z m -70.625,-16.76098 c -16.28703,-5.81737 -39.36099,-17.36601 -54.53381,-27.29446 -14.49986,-9.48809 -12.8138,-5.70506 -16.11492,-36.15695 -1.10744,-10.216 -1.72923,-19.31552 -1.38171,-20.22114 0.34753,-0.90563 3.15473,-2.76257 6.23824,-4.12656 12.77608,-5.65146 22.74186,-19.37035 24.17778,-33.28313 0.58898,-5.70669 1.2573,-7.32036 3.36226,-8.11824 2.82705,-1.07158 33.88027,-5.43447 53.25216,-7.48177 17.3175,-1.83019 106.4315,-6.12514 136.23256,-6.56587 l 25.6075,-0.37873 0.9462,7.47703 c 0.5204,4.11236 2.2003,10.97406 3.7332,15.24822 l 2.7871,7.77121 -3.0908,3.30996 c -8.7632,9.38464 -50.42388,39.26477 -94.34077,67.66359 -23.32904,15.08572 -66.84938,42.15677 -72.5,45.09733 -1.9487,1.0141 -5.11869,0.36566 -14.37499,-2.94049 z m 264.33786,-35.81435 c -1.3232,-3.54247 -4.4241,-27.45871 -5.1577,-39.78 l -0.787,-13.21749 6.8703,-3.87735 c 3.7786,-2.13254 10.2838,-7.65953 14.456,-12.28221 l 7.5857,-8.40487 9.7568,1.57393 c 15.4559,2.49331 33.7763,9.4403 35.0612,13.29505 0.999,2.9969 -22.5857,29.84302 -38.6786,44.0274 -20.5321,18.09713 -27.621,22.64307 -29.1067,18.66554 z M 755.76034,856.16715 c -18.53708,-19.12758 -22.59811,-25.27138 -17.89676,-27.07545 4.02281,-1.5437 7.37715,-0.66403 11.08825,2.90792 2.09523,2.01666 7.17183,5.54925 11.28135,7.85019 6.94457,3.88831 7.54157,4.57782 8.4599,9.77085 1.25936,7.1215 0.71108,16.51286 -0.9968,17.07378 -0.7233,0.23754 -6.09447,-4.49974 -11.93594,-10.52729 z m 17.95554,-34.03857 c -9.70386,-2.33371 -16.57954,-11.39888 -16.57954,-21.85911 0,-6.63521 1.98625,-11.10391 7.0759,-15.91949 14.12255,-13.36204 36.6741,-3.12643 36.6741,16.6455 0,13.31015 -14.09939,24.27662 -27.17046,21.1331 z m 320.29542,-0.0708 c -17.287,-2.76129 -30.3256,-17.21131 -31.5588,-34.97478 -2.0047,-28.87627 29.3671,-49.28345 54.6275,-35.53498 13.2629,7.21857 20.0669,18.82622 20.0441,34.19515 -0.033,22.4439 -20.7428,39.88782 -43.1128,36.31461 z m -379.22807,-20.4482 c -17.59947,-30.11015 -30.16469,-66.09886 -35.84019,-102.65162 -2.23578,-14.39945 -3.03693,-59.70332 -1.24288,-70.28269 0.80502,-4.7471 1.36047,-5.41175 5.47851,-6.55554 5.86919,-1.63016 44.3841,-1.62233 55.83267,0.0113 13.34235,1.90393 16.47089,3.24419 18.03301,7.72534 0.74693,2.14259 3.68534,6.97811 6.52985,10.74564 l 5.17183,6.85004 1.179,17.62792 c 1.30419,19.49964 0.48351,81.43859 -1.16776,88.13363 -1.09481,4.4389 -1.57133,4.8522 -9.74594,8.45295 -2.75,1.21131 -7.86661,5.05235 -11.37026,8.53561 -8.25728,8.20938 -11.75474,17.14255 -11.75474,30.02392 0,10.24769 -1.34198,12.18783 -9.56818,13.83307 -3.72887,0.74577 -3.98188,0.4727 -11.53493,-12.44952 z m 473.60307,6.81203 c -14.0393,-4.16556 -24.0627,-7.93701 -28.0668,-10.56056 -2.6529,-1.73826 -2.9368,-2.97278 -3.3977,-14.77491 -0.4178,-10.69938 -1.0766,-14.11976 -3.8942,-20.21673 -1.8652,-4.03621 -3.3913,-8.38315 -3.3913,-9.65988 0,-1.27672 3.7183,-10.34937 8.263,-20.16145 4.5446,-9.81206 22.8681,-50.18387 40.7188,-89.71512 38.0564,-84.27761 35.0229,-77.82 36.8328,-78.40839 2.3756,-0.77229 8.5492,20.17797 13.1599,44.65839 3.1845,16.90804 4.5203,63.13423 2.3399,80.97329 -4.3235,35.37329 -13.3352,65.41665 -29.1057,97.03396 -11.1386,22.33095 -12.7005,24.50621 -17.5369,24.42376 -2.2257,-0.038 -9.3905,-1.65451 -15.9218,-3.59236 z M 812.64224,772.01194 c -2.10158,-2.10158 -6.872,-5.94198 -10.60096,-8.53424 l -6.77994,-4.71322 0.1541,-31.77826 c 0.10825,-22.32277 0.76726,-35.93029 2.21479,-45.7325 3.11259,-21.07749 3.05241,-20.97077 12.84279,-22.77472 20.03642,-3.69185 32.55097,-15.01918 39.14567,-35.432 l 2.68543,-8.31233 20.85361,-6.90076 c 25.34164,-8.38591 43.74616,-13.93454 73.35361,-22.11475 12.375,-3.41908 23.43829,-6.50296 24.58509,-6.85308 1.2096,-0.3693 3.83383,0.89037 6.25,3.00007 8.2413,7.196 16.86493,10.51521 28.39177,10.92792 6.9421,0.24856 10.9014,0.9364 11.6298,2.02038 13.1494,19.56837 26.0213,50.26105 39.9139,95.17374 7.2893,23.56511 11.1044,37.82631 11.1044,41.50952 0,1.69546 -2.3086,4.64056 -6.2289,7.9462 -3.4259,2.88875 -7.9045,7.68775 -9.9525,10.66441 l -3.7237,5.41214 -13.4849,2.02919 c -20.907,3.14605 -72.87637,8.74256 -94.10996,10.13459 -6.53125,0.42817 -19.1875,1.32016 -28.125,1.9822 -27.67074,2.04968 -89.83258,6.16402 -93.14904,6.16531 -1.84645,7.1e-4 -4.7296,-1.57934 -6.97006,-3.81981 z m 307.61906,-40.71019 c -2.75,-1.02029 -7.7567,-2.38843 -11.126,-3.04033 -3.3693,-0.65189 -6.9066,-1.83311 -7.8607,-2.62493 -4.0312,-3.34562 -16.2532,-23.85368 -25.8733,-43.41465 -14.059,-28.58673 -39.515,-93.11349 -39.515,-100.16394 0,-1.25573 1.3294,-3.87317 2.9542,-5.81653 6.2796,-7.51081 8.7164,-14.24597 9.2964,-25.6942 l 0.5527,-10.91079 10.1608,-9.71421 c 12.2597,-11.72071 27.5348,-24.67365 47.6609,-40.41529 23.3758,-18.28339 53.149,-39.92392 54.9276,-39.92392 1.8497,0 17.5148,15.80235 26.6414,26.875 14.3946,17.46388 34.056,49.43137 34.056,55.37176 0,6.3349 -23.9629,73.34332 -41.4256,115.83995 -17.1327,41.69357 -29.8003,64.62995 -43.3417,78.47579 -7.5302,7.69949 -9.0325,8.15229 -17.1077,5.15629 z m -322.49996,-97.9371 c -13.09173,-3.01443 -20.36155,-13.07478 -19.0807,-26.40482 2.12471,-22.11222 31.57874,-28.86046 43.68733,-10.00923 3.33027,5.18472 3.6544,6.58956 3.25885,14.1244 -0.37208,7.08767 -1.01718,9.08111 -4.21897,13.03702 -5.97835,7.38644 -15.52612,11.12239 -23.64651,9.25263 z m -76.875,-29.64147 c -2.40625,-0.27377 -11.34784,-1.28702 -19.87016,-2.25166 -8.52234,-0.96463 -16.06918,-2.3279 -16.77075,-3.02947 -3.06449,-3.06449 8.23437,-38.3131 20.26955,-63.23409 14.97943,-31.01761 30.23166,-53.01308 53.19092,-76.70744 42.1062,-43.45433 97.55748,-72.84531 157.25821,-83.35195 12.74721,-2.24336 17.17223,-2.29827 17.17223,-0.21307 0,0.88138 -3.16891,5.9967 -7.04205,11.36736 -7.81862,10.84167 -6.59271,10.45206 -20.41787,6.48925 -8.39802,-2.4072 -13.71099,-2.44968 -22.24508,-0.17784 -28.4999,7.58686 -41.17725,39.669 -25.77955,65.23943 2.329,3.86768 4.23455,7.54253 4.23455,8.16635 0,1.98846 -7.43934,15.95985 -15.45715,29.02917 -8.69063,14.16604 -26.19048,38.52034 -39.117,54.43861 -8.07978,9.94978 -8.96403,10.64292 -16.05085,12.58174 -9.74586,2.66628 -14.65956,5.322 -21.48126,11.61001 -6.74413,6.21652 -11.2072,13.56642 -14.04132,23.12355 l -2.12171,7.15483 -13.67785,0.1315 c -7.52282,0.0724 -15.64661,-0.0925 -18.05286,-0.36628 z m 129.02432,-11.31567 c -0.88037,-0.30709 -3.00896,-3.33744 -4.73019,-6.73414 -1.72123,-3.39669 -5.36031,-8.40659 -8.08682,-11.1331 -2.72653,-2.72652 -4.95731,-5.87037 -4.95731,-6.98634 0,-3.406 26.97626,-56.48553 35.94655,-70.72986 12.62985,-20.05546 12.24873,-19.73315 22.4243,-18.96412 5.85476,0.44248 10.64599,0.0112 15.37915,-1.3851 12.46956,-3.67797 12.02889,-3.70163 18.39506,0.98797 12.84176,9.45981 34.29019,33.63843 40.8927,46.09795 2.31185,4.36268 2.32493,4.82509 0.3125,11.05619 -1.15515,3.5767 -2.10026,9.76966 -2.10026,13.76214 0,6.9595 -0.21289,7.44127 -5.15877,11.67476 -10.47667,8.96764 -32.08971,18.36656 -56.22303,24.44985 -18.25378,4.60124 -48.43431,9.18029 -52.09388,7.9038 z m 147.22568,-16.23363 c -5.92598,-2.24933 -12.52686,-8.34358 -15.5004,-14.31067 -4.29166,-8.61226 -4.27846,-15.97476 0.0443,-24.6493 7.97033,-15.99439 27.08886,-20.57594 41.69876,-9.99264 10.881,7.8822 14.1406,24.51857 7.138,36.43141 -4.9954,8.49812 -13.8966,13.43707 -24.0056,13.31987 -4.125,-0.0479 -8.34377,-0.40723 -9.37502,-0.79867 z m 28.31586,-63.8769 c -7.6486,-4.04182 -9.5768,-4.52651 -18.125,-4.55601 -6.4056,-0.0221 -11.55967,0.73614 -15.60086,2.29511 l -6.035,2.32812 -7.08551,-4.82812 c -14.96297,-10.19587 -33.8056,-31.78114 -42.35824,-48.52366 -3.04847,-5.96765 -3.10654,-6.50472 -1.57877,-14.60157 1.9693,-10.43686 1.00305,-19.21631 -3.10168,-28.18222 -1.74027,-3.80125 -2.78732,-7.55471 -2.3268,-8.34102 3.09239,-5.27986 13.73094,-18.08506 22.73663,-27.36715 l 10.61178,-10.9375 8.39134,0 c 23.62393,0 57.56951,5.89939 83.65621,14.53857 27.4022,9.07486 65.1976,29.07989 84.3152,44.62788 l 3.6901,3.00115 -2.326,3.6037 c -3.6784,5.69899 -37.7232,39.0353 -49.4293,48.40063 -19.5662,15.65376 -49.2441,33.58478 -54.9443,33.19658 -1.0619,-0.0724 -5.7823,-2.16683 -10.4898,-4.65449 z m -139.95964,-52.7351 c -15.11059,-4.53557 -22.39492,-23.8598 -14.23968,-37.77568 3.89915,-6.65339 11.92642,-12.07804 19.34527,-13.07312 14.71515,-1.97371 28.98329,10.76173 28.98329,25.86988 0,17.37456 -17.26801,30.02785 -34.08888,24.97892 z"
         style="fill:#a6d3a0"
         sodipodi:nodetypes="ssssccsssssssssssssscsscsssssscsscscssssssscssssssssscscsssscscssssssccssscssssssscssscsssscsssssssssscsssssssssssscssssssssssssssssssssssssssssssscsssssssscssssssscsssscccssscsssscscssscsscssssss" />
      <path
         inkscape:connector-curvature="0"
         id="path4157"
         d="m 1129.1312,888.64546 c -1.2865,-4.17805 -4.4949,-33.40609 -4.4949,-40.94756 l 0,-7.58472 8.0091,-5.26563 c 4.4049,-2.89612 10.4129,-8.13688 13.3511,-11.64617 l 5.342,-6.38051 6.3364,0.82213 c 15.0741,1.9558 34.4614,8.9494 34.4614,12.43127 0,2.91323 -11.3676,16.15672 -28.0112,32.63369 -13.3634,13.22956 -31.0406,28.07881 -33.4671,28.11299 -0.4693,0.006 -1.1563,-0.97236 -1.5268,-2.17549 z M 769.27074,818.22061 c -11.9829,-6.32399 -14.19512,-22.58269 -4.35473,-32.00489 10.69239,-10.23796 27.24258,-6.52088 32.79922,7.3665 6.8406,17.09633 -11.92905,33.35444 -28.44449,24.63839 z m 318.75466,0.46266 c -8.031,-2.67715 -16.2623,-10.18408 -20.3678,-18.57532 -8.394,-17.15671 -0.8349,-39.00928 16.3952,-47.39665 7.4101,-3.60718 22.4414,-4.08228 29.5581,-0.93425 7.7433,3.42522 14.3657,9.61494 18.2617,17.06838 4.4082,8.43353 4.7058,22.12248 0.6724,30.93294 -7.5668,16.52884 -26.9527,24.76089 -44.5196,18.9049 z m 99.477,-12.75232 c -6.3299,-1.88508 -15.1893,-4.99158 -19.6875,-6.90335 l -8.1786,-3.47594 -0.015,-9.54685 c -0.016,-10.03842 -1.9523,-19.35357 -5.4154,-26.04727 -1.1383,-2.20024 -2.0697,-5.11932 -2.0697,-6.48684 0,-1.36754 7.7852,-19.5361 17.3005,-40.37458 9.5152,-20.83849 28.1694,-61.95587 41.4536,-91.37197 13.2843,-29.41609 24.585,-53.04109 25.1126,-52.5 0.5276,0.5411 2.7052,7.54807 4.8391,15.57106 17.8128,66.9725 10.4345,139.55729 -20.427,200.9517 -10.703,21.29185 -12.5792,23.85634 -17.357,23.72375 -2.2257,-0.0617 -9.2258,-1.65464 -15.5557,-3.53971 z m -69.1161,-77.64987 c -3.7812,-1.26246 -8.3166,-2.32976 -10.0786,-2.37176 -9.4686,-0.2257 -30.6925,-38.30551 -52.991,-95.07636 -7.7207,-19.65635 -17.2992,-46.32077 -17.2877,-48.125 0.01,-0.6875 2.0464,-4.24634 4.5378,-7.90852 5.5828,-8.20654 8.3195,-17.07498 8.3195,-26.95997 l 0,-7.53972 8.4375,-7.93502 c 22.3837,-21.05066 97.7285,-80.28177 102.1223,-80.28177 1.9231,0 14.3234,12.93344 25.3174,26.40601 15.0878,18.48927 32.8224,47.41986 32.8533,53.59399 0.031,6.23987 -21.4968,66.7622 -39.5722,111.25 -17.1412,42.18865 -31.5734,68.82686 -44.5278,82.1875 -5.7251,5.9046 -7.0665,6.12076 -17.1305,2.76062 z M 792.53151,629.65363 c -5.74936,-2.61028 -10.87954,-9.34916 -12.28296,-16.13453 -2.10247,-10.16534 5.75684,-21.9989 16.81007,-25.31054 9.42837,-2.82481 20.40855,2.3542 24.97042,11.77777 3.19605,6.60213 3.27438,12.39935 0.25639,18.97163 -2.731,5.94727 -5.51861,8.6124 -11.71719,11.20232 -6.08965,2.54443 -11.66124,2.38792 -18.03673,-0.50665 z m 205.45957,-55.56018 c -8.55449,-3.17914 -13.83983,-8.90797 -16.55852,-17.94799 -1.80375,-5.99767 -1.80038,-7.15846 0.0394,-13.48672 6.17604,-21.24486 33.63074,-26.09013 46.28944,-8.16928 3.3874,4.79545 3.75,6.24564 3.75,14.99555 0,8.54315 -0.4078,10.27521 -3.4546,14.6718 -6.4661,9.33051 -19.8204,13.74409 -30.06563,9.93664 z m 29.77022,-63.26269 c -10.4419,-6.03389 -25.1522,-7.0091 -37.70367,-2.49958 -3.46571,1.24517 -4.5457,1.04028 -8.75,-1.65996 -14.69993,-9.44115 -30.6467,-27.03321 -41.04489,-45.27966 l -5.29548,-9.29236 1.8107,-7.82062 c 2.19133,-9.46459 1.37947,-17.53376 -2.79512,-27.78101 l -3.03925,-7.4604 8.63468,-11.2896 c 4.74906,-6.20928 12.01323,-14.61193 16.14261,-18.67255 l 7.50794,-7.38293 17.26626,0.76502 c 37.27292,1.65148 72.74322,10.90606 108.58102,28.32999 16.1867,7.86982 45.4701,26.04381 49.1944,30.53129 1.3462,1.62206 -0.9997,4.55045 -15.7134,19.61536 -20.2618,20.74539 -36.0297,34.2674 -54.0338,46.33736 -14.2879,9.57868 -28.8451,17.35081 -32.2933,17.24154 -1.2203,-0.0386 -5.0312,-1.69553 -8.4687,-3.68189 z M 888.68083,458.30972 c -21.87544,-4.92338 -25.88419,-35.31201 -5.93237,-44.97052 14.83217,-7.18014 32.32615,1.59116 35.02418,17.56074 2.68961,15.91956 -13.28227,30.96796 -29.09181,27.40978 z"
         style="fill:#34a03e;fill-opacity:1"
         sodipodi:nodetypes="csccccsssccssssssssssscscccsssssscccsssccscssscsssssssssscscsssccsssscsscsscssssscsssss" />
    </g>
    <path
       sodipodi:nodetypes="csscssscscssssssscssssssccccsssscssccscsssccssccccccsssscssccsccsssscssscccsssssscscssccsssscssccscsssscsssscsccssssccccccscscsscscccccc"
       style="fill:#34a03e;fill-opacity:1"
       d="m 865.44964,545.1744 c -1.3156,-1.5949 -14.6009,-53.5284 -29.5228,-115.4076 -14.9221,-61.8795 -31.1314,-128.6341 -36.0209,-148.3438 -4.8895,-19.70972 -8.3727,-36.67285 -7.7402,-37.69595 0.6323,-1.0231 6.8709,-1.86007 13.8638,-1.86007 21.3903,0 35.5705,10.0783 42.4306,30.15676 3.2182,9.41912 18.3953,74.59966 34.0293,146.14426 10.4604,47.8684 13.0119,56.0563 16.4101,52.6584 0.8505,-0.8507 7.083,-30.5319 13.85,-65.9583 26.6563,-139.55234 30.113,-150.72258 49.7367,-160.73389 10.3179,-5.26397 32.7243,-6.2997 36.4971,-1.68729 3.56686,4.36058 14.57086,51.72248 33.01156,142.08468 18.6402,91.339 17.6089,86.9907 20.6294,86.9907 2.9077,0 3.1413,-0.8394 13.8766,-49.8746 19.1171,-87.3201 33.2981,-146.48673 37.312,-155.67498 2.2898,-5.2419 8.0866,-12.52313 12.882,-16.18073 7.1968,-5.48927 11.4969,-6.80707 24.633,-7.54939 14.2997,-0.80802 15.9142,-0.4608 15.9125,3.42209 0,7.95359 -46.9194,211.47941 -57.0796,247.61541 -9.9576,35.4164 -15.978,43.3587 -38.6893,51.0399 -13.4381,4.5448 -37.1771,4.9947 -40.6825,0.7709 -1.3618,-1.6409 -11.5878,-48.0939 -22.72456,-103.2289 -13.7608,-68.1252 -21.1822,-100.2457 -23.1612,-100.2457 -3.3232,0 -4.4953,5.3487 -16.0107,73.0721 -9.0062,52.9647 -18.8087,99.3655 -22.5433,106.7085 -5.1595,10.1444 -17.0504,19.9328 -28.258,23.261 -14.2128,4.2208 -39.3349,4.525 -42.6416,0.5165 z m 423.89906,0.5547 c -59.8458,-5.5548 -90.8494,-31.987 -103.6223,-88.3436 -5.0116,-22.1118 -5.9747,-157.2536 -1.2319,-172.83269 6.1487,-20.19705 18.9556,-32.54221 40.9756,-39.49849 9.1964,-2.90525 27.1756,-4.06142 81.3961,-5.23447 38.2759,-0.82787 70.5063,-0.78408 71.623,0.0984 3.4892,2.75456 -0.7724,17.71528 -7.234,25.39421 -11.2652,13.38793 -17.0562,14.5634 -76.5701,15.54011 l -53.9364,0.88521 -4.9175,6.16219 c -4.6533,5.83127 -4.8355,7.83997 -3.3935,37.39367 0.9986,20.4674 2.4943,31.8483 4.3397,33.021 1.5489,0.9841 25.5533,1.8055 53.3434,1.825 57.5411,0.041 56.7952,-0.2406 47.7295,17.9723 -9.0604,18.2015 -14.6725,20.1382 -62.3007,21.499 l -40.5957,1.1599 0.1615,24.3574 c 0.19,28.8159 5.4449,45.3459 18.7805,59.0772 17.2424,17.7539 43.0416,23.3612 98.7845,21.4703 20.1543,-0.6837 37.1015,-0.3211 37.7996,0.8086 2.4721,3.9998 -4.0554,21.5438 -10.3622,27.8505 -3.5227,3.5225 -10.4842,7.4397 -15.4703,8.7047 -13.377,3.394 -52.6138,4.7959 -75.2978,2.6905 z m 231.6101,-0.1411 c -57.1722,-5.7747 -87.3279,-31.0414 -100.8574,-84.5053 -3.5154,-13.892 -4.1164,-27.2996 -4.1581,-92.7901 -0.057,-89.05536 0.8028,-94.1178 18.6499,-109.82715 17.3235,-15.24893 28.5238,-17.20067 107.7277,-18.77328 37.638,-0.74733 69.2883,-0.69982 70.3343,0.10578 3.3582,2.58587 -1.1304,18.4127 -7.3021,25.74719 -10.941,13.00267 -17.0471,14.23121 -77.7229,15.63642 -51.2322,1.1866 -55.5274,1.61083 -58.5737,5.78342 -3.8493,5.27292 -4.7043,62.73162 -1.0203,68.56922 1.8101,2.8685 11.4799,3.6834 55.0584,4.6395 l 52.8627,1.1599 -0.7477,5.7994 c -1.4622,11.3426 -8.7292,21.7681 -18.9348,27.165 -9.3137,4.9253 -12.874,5.3115 -48.9588,5.3115 -45.4543,0 -43.1111,-1.5973 -40.3818,27.5289 6.0312,64.3607 32.2499,81.514 120.0419,78.5358 l 36.5361,-1.2393 0,6.9702 c 0,3.8337 -1.6558,10.4597 -3.6795,14.7243 -6.7444,14.2126 -18.9049,18.7779 -54.3143,20.3904 -13.3965,0.61 -33.4484,0.1908 -44.5596,-0.9314 z m 411.664,0.5753 c -2.1436,-1.361 11.5219,-37.8305 52.6131,-140.41 30.5297,-76.2142 58.1949,-143.15536 61.4784,-148.75802 17.3671,-29.63472 50.0941,-27.94037 66.2259,3.42878 10.6567,20.7228 113.8706,281.55754 112.6612,284.70934 -1.7964,4.6812 -27.179,2.9379 -37.8929,-2.6026 -10.0716,-5.2083 -13.0507,-10.3489 -29.5337,-50.9631 l -14.2552,-35.1245 -63.8707,-0.6162 c -49.3281,-0.4758 -64.4085,0.052 -66.2322,2.3198 -1.2989,1.6147 -7.755,16.6894 -14.3472,33.4994 -14.5552,37.1166 -19.2335,44.473 -32.5645,51.2077 -10.3663,5.2369 -28.4913,6.9867 -34.2822,3.3096 z m 191.9555,-137.0601 c 0,-2.4335 -8.7434,-26.7041 -19.4297,-53.9342 -10.6864,-27.2304 -20.1705,-51.9177 -21.076,-54.861 -3.8079,-12.37856 -8.9651,-3.6517 -30.58,51.7464 -11.9473,30.6207 -21.2291,56.9788 -20.6263,58.5737 0.8253,2.1833 12.2887,2.8997 46.4041,2.8997 43.0278,0 45.3079,-0.2227 45.3079,-4.4246 z m -446.2336,133.2524 c -11.75,-4.1889 -21.8804,-14.1204 -24.8302,-24.3427 -1.5282,-5.2967 -2.128,-55.5794 -1.688,-141.528 l 0.6825,-133.31255 10.4389,-2.10169 c 14.1163,-2.84216 41.003,1.48019 55.7768,8.96667 14.0546,7.12201 27.3878,20.04728 38.3374,37.16426 8.2666,12.92291 29.0085,57.50351 65.007,139.72041 11.0195,25.1676 21.0022,46.7946 22.184,48.0597 1.4043,1.5037 2.8112,1.2278 4.0626,-0.7969 1.0528,-1.7034 1.4011,-45.538 0.7742,-97.41 -1.2217,-101.06637 -0.6416,-108.06645 10.0039,-120.718 6.1965,-7.36418 20.5884,-13.81606 32.943,-14.76827 l 7.5528,-0.58216 0.3232,150.43863 c 0.2716,126.367 -0.1946,150.7901 -2.9132,152.6338 -1.7801,1.2072 -12.69,1.845 -24.2442,1.4175 -17.23,-0.6379 -23.363,-1.9301 -34.1064,-7.1864 -27.6728,-13.539 -37.5891,-30.2947 -98.0405,-165.6577 -22.0283,-49.3261 -35.643,-77.1317 -37.7664,-77.1317 -2.8608,0 -3.0818,17.3337 -1.597,125.2665 l 1.7235,125.2666 -7.8316,-0.1021 c -4.3074,-0.056 -11.864,-1.5394 -16.7923,-3.2963 z m 682.0483,0.019 c -9.3507,-3.334 -18.6512,-10.8153 -23.1907,-18.654 -1.8962,-3.2746 -3.0279,-39.445 -3.8465,-122.9468 l -1.1598,-118.30726 -47.5549,-1.15987 c -45.3448,-1.10606 -47.585,-1.37552 -48.2015,-5.79938 -1.0832,-7.77432 9.2569,-25.02472 18.0447,-30.10368 7.8354,-4.52852 11.9304,-4.69258 117.1474,-4.69258 107.2662,0 109.0387,0.0742 109.6748,4.63951 1.0833,7.77543 -9.2552,25.02602 -18.0148,30.05858 -6.7747,3.89217 -13.7487,4.84327 -42.9153,5.85227 l -34.8262,1.20553 -0.5992,131.64588 -0.5989,131.6458 -7.5203,-0.1021 c -4.1358,-0.056 -11.5334,-1.5329 -16.4388,-3.2819 z"
       id="path4157-6"
       inkscape:connector-curvature="0" />
  </g>
</svg>
